<svg width="736" height="294" viewBox="0 0 736 294" xmlns="http://www.w3.org/2000/svg" xmlns:xlink="http://www.w3.org/1999/xlink"><title>3@3x</title><defs><path id="a" d="M0 0h118v55H0z"/><path id="b" d="M0 0h108v55H0z"/><path id="c" d="M0 0h118v55H0z"/><path id="d" d="M0 0h118v55H0z"/><path id="e" d="M0 0h118v55H0z"/><path id="f" d="M0 0h108v55H0z"/><path id="g" d="M0 0h108v55H0z"/><path id="h" d="M375 225h118v56H375z"/><path id="i" d="M136 225h108v56H136z"/><path id="j" d="M503 225h109v56H503z"/><path id="k" d="M621 225h109v56H621z"/><path id="l" d="M254 225h109v56H254z"/><path id="m" d="M6 225h119v56H6z"/><linearGradient x1="50%" y1="0%" x2="50%" y2="99.845%" id="n"><stop stop-color="#4387FD" offset="0%"/><stop stop-color="#4683EA" offset="100%"/></linearGradient><linearGradient x1="50%" y1="0%" x2="50%" y2="99.845%" id="o"><stop stop-color="#4387FD" offset="0%"/><stop stop-color="#4683EA" offset="100%"/></linearGradient></defs><g fill="none" fill-rule="evenodd"><path stroke="#616161" stroke-linecap="square" d="M129.54 132.43v-26.557h178.49v27.609"/><path fill="#616161" d="M312.131 130.672l-.716-.672-3.283 3.556-3.284-3.556-.717.672 4.001 4.328zm-178.631 0l-.716-.672-3.283 3.556-3.285-3.556-.716.672 4 4.328z"/><path stroke="#616161" stroke-linecap="square" d="M67.54 221.43v-13.557h122.49v14.609"/><path fill="#616161" d="M194.131 219.672l-.716-.672-3.283 3.556-3.284-3.556-.717.672 4.001 4.328zm-122.631 0l-.716-.672-3.283 3.556L64.216 219l-.716.672 4 4.328z"/><path stroke="#616161" stroke-linecap="square" d="M433.54 132.43v-26.557h123.034v27.609"/><path fill="#616161" d="M560.5 130.672l-.716-.672-3.283 3.556-3.285-3.556-.716.672 4 4.328zm-123 0l-.716-.672-3.283 3.556-3.285-3.556-.716.672 4 4.328z"/><g transform="translate(439 16)"><use fill="#FFF" xlink:href="#a"/><path stroke="#DFDFDF" d="M.5.5h117v54H.5z"/></g><text font-family="Roboto-Regular, Roboto" font-size="12" fill="#212121" transform="translate(439 16)"><tspan x="17" y="31">Semi-Structured</tspan></text><g transform="translate(622 16)"><use fill="#FFF" xlink:href="#b"/><path stroke="#DFDFDF" d="M.5.5h107v54H.5z"/></g><text font-family="Roboto-Regular, Roboto" font-size="12" fill="#212121" transform="translate(622 16)"><tspan x="20" y="31">Unstructured</tspan></text><g transform="translate(160 16)"><use fill="#FFF" xlink:href="#c"/><path stroke="#DFDFDF" d="M.5.5h117v54H.5z"/></g><text font-family="Roboto-Regular, Roboto" font-size="12" fill="#212121" transform="translate(160 16)"><tspan x="30" y="31">Structured</tspan></text><g transform="translate(70 137)"><use fill="#FFF" xlink:href="#d"/><path stroke="#DFDFDF" d="M.5.5h117v54H.5z"/></g><text font-family="Roboto-Regular, Roboto" font-size="12" fill="#212121" transform="translate(70 137)"><tspan x="23" y="31">Transactional</tspan></text><g transform="translate(375 137)"><use fill="#FFF" xlink:href="#e"/><path stroke="#DFDFDF" d="M.5.5h117v54H.5z"/></g><text font-family="Roboto-Regular, Roboto" font-size="12" fill="#212121" transform="translate(375 137)"><tspan x="24" y="31">Fully Indexed</tspan></text><g transform="translate(254 137)"><use fill="#FFF" xlink:href="#f"/><path stroke="#DFDFDF" d="M.5.5h107v54H.5z"/></g><text font-family="Roboto-Regular, Roboto" font-size="12" fill="#212121" transform="translate(254 137)"><tspan x="29" y="31">Analytical</tspan></text><g transform="translate(503 137)"><use fill="#FFF" xlink:href="#g"/><path stroke="#DFDFDF" d="M.5.5h107v54H.5z"/></g><text font-family="Roboto-Regular, Roboto" font-size="12" fill="#212121" transform="translate(503 137)"><tspan x="30" y="31">Row Key</tspan></text><path d="M220 105V71m-90 137v-16m367-87V71" stroke="#616161" stroke-linecap="square"/><use fill="#FFF" xlink:href="#h"/><path stroke="#DFDFDF" d="M375.5 225.5h117v55h-117z"/><use fill="#FFF" xlink:href="#i"/><path stroke="#DFDFDF" d="M136.5 225.5h107v55h-107z"/><text font-family="Roboto-Regular, Roboto" font-size="12" fill="#212121"><tspan x="424" y="250">Cloud</tspan> <tspan x="424" y="264">Datastore</tspan></text><text font-family="Roboto-Regular, Roboto" font-size="12" fill="#212121"><tspan x="185" y="250">Cloud</tspan> <tspan x="185" y="264">Spanner</tspan></text><use fill="#FFF" xlink:href="#j"/><path stroke="#DFDFDF" d="M503.5 225.5h108v55h-108z"/><text font-family="Roboto-Regular, Roboto" font-size="12" fill="#212121"><tspan x="552" y="250">Cloud</tspan> <tspan x="552" y="264">Bigtable</tspan></text><use fill="#FFF" xlink:href="#k"/><path stroke="#DFDFDF" d="M621.5 225.5h108v55h-108z"/><text font-family="Roboto-Regular, Roboto" font-size="12" fill="#212121"><tspan x="670" y="250">Cloud</tspan> <tspan x="670" y="264">Storage</tspan></text><use fill="#FFF" xlink:href="#l"/><path stroke="#DFDFDF" d="M254.5 225.5h108v55h-108z"/><text font-family="Roboto-Regular, Roboto" font-size="12" fill="#212121"><tspan x="302" y="256">BigQuery</tspan></text><use fill="#FFF" xlink:href="#m"/><path stroke="#DFDFDF" d="M6.5 225.5h118v55H6.5z"/><text font-family="Roboto-Regular, Roboto" font-size="12" fill="#212121"><tspan x="55" y="256">Cloud SQL</tspan></text><path d="M676.574 70.578v151.904" stroke="#616161" stroke-linecap="square"/><path fill="#616161" d="M680.5 219.672l-.716-.672-3.283 3.556-3.285-3.556-.716.672 4 4.328z"/><path d="M556.574 191.879v30.603" stroke="#616161" stroke-linecap="square"/><path fill="#616161" d="M560.5 219.672l-.716-.672-3.283 3.556-3.285-3.556-.716.672 4 4.328z"/><path d="M434.574 191.879v30.603" stroke="#616161" stroke-linecap="square"/><path fill="#616161" d="M438.5 219.672l-.716-.672-3.283 3.556-3.285-3.556-.716.672 4 4.328z"/><path d="M308.574 191.879v30.603" stroke="#616161" stroke-linecap="square"/><path fill="#616161" d="M312.5 219.672l-.716-.672-3.283 3.556-3.285-3.556-.716.672 4 4.328z"/><g><path d="M6.008 22.584L.53 13.096a2.4 2.4 0 0 1 0-2.4l5.478-9.49A2.4 2.4 0 0 1 8.087.008h10.957a2.4 2.4 0 0 1 2.078 1.2l5.478 9.489a2.4 2.4 0 0 1 0 2.4l-5.478 9.488a2.4 2.4 0 0 1-2.078 1.2H8.087a2.4 2.4 0 0 1-2.079-1.2z" fill="url(#n)" transform="translate(635 241)"/><path d="M660.03 257.07l-6.98-6.981-7.55.694-1.463 1.458 1.243 1.244-1.23 2.186 9.315 9.315h2.257z" fill="#000" opacity=".07"/><path d="M652.885 250.03h-8.647a.254.254 0 0 0-.253.253v1.788c0 .14.114.253.253.253h8.647c.14 0 .253-.114.253-.253v-1.788a.254.254 0 0 0-.253-.253m-1.339 1.664a.518.518 0 1 1 .003-1.036.518.518 0 0 1-.003 1.036m1.339 1.773h-8.647a.254.254 0 0 0-.253.253v1.788c0 .139.114.253.253.253h8.647c.14 0 .253-.114.253-.253v-1.788a.254.254 0 0 0-.253-.253m-1.339 1.664a.518.518 0 1 1 .003-1.037.518.518 0 0 1-.003 1.037" fill="#FFF"/></g><g><path d="M6.026 22.39L.532 12.983a2.355 2.355 0 0 1 0-2.38l5.494-9.406A2.412 2.412 0 0 1 8.11.007H19.1c.86 0 1.654.453 2.084 1.19l5.495 9.407c.43.736.43 1.643 0 2.379l-5.495 9.407a2.412 2.412 0 0 1-2.084 1.19H8.11c-.86 0-1.654-.454-2.084-1.19z" fill="url(#n)" transform="translate(517 242)"/><path d="M543.32 255.983l-7.081-7-.262 2.042-1.405-1.39-4.898-1.982 2.737 2.706-3.315-1.549-5.53 2.57 1.5 1.482-.101 5.753 7.24 7.157 5.446.03z" fill="#000" opacity=".07"/><g fill="#FFF"><path d="M534.725 249.998l.005 4.278a.26.26 0 0 1-.13.224l-.703.4-.003-4.427c0-.185-.1-.355-.26-.447l-3.494-1.994a1.87 1.87 0 0 1-.94-1.48l5.264 3a.515.515 0 0 1 .261.446z"/><path d="M535.99 255.423l-3.746 2.143a.264.264 0 0 1-.261 0l-.702-.4 3.877-2.217a.515.515 0 0 0 .261-.447v-3.987c0-.62.314-1.2.828-1.545l.003 6.006a.514.514 0 0 1-.26.447z"/><path d="M531.87 259.218l-3.75-2.135a.257.257 0 0 1-.132-.224v-.801l3.88 2.211a.53.53 0 0 0 .523 0l3.493-1.994a1.913 1.913 0 0 1 1.767-.063l-5.26 3.006a.527.527 0 0 1-.522 0z"/><path d="M526.484 257.588l-.004-4.278c0-.092.05-.177.13-.223l.702-.401.003 4.428c0 .184.1.354.261.446l3.494 1.994c.542.31.893.869.939 1.481l-5.264-3a.515.515 0 0 1-.261-.447z"/><path d="M525.22 252.163l3.745-2.143a.264.264 0 0 1 .261 0l.703.401-3.878 2.216a.515.515 0 0 0-.26.447v3.988c0 .619-.315 1.199-.829 1.544l-.003-6.006c0-.185.1-.355.26-.447z"/><path d="M529.34 248.368l3.75 2.135c.081.046.13.131.13.224v.801l-3.88-2.211a.527.527 0 0 0-.521 0l-3.494 1.994c-.542.31-1.208.33-1.767.063l5.26-3.006a.527.527 0 0 1 .522 0zM530.603 254.89a.29.29 0 0 1-.143-.037l-2.474-1.412v.616l2.617 1.494 2.617-1.494v-.616l-2.473 1.412a.29.29 0 0 1-.144.038z"/><path d="M530.747 256.124a.29.29 0 0 1-.287 0l-2.474-1.412v.456c0 .098.053.188.139.237l2.34 1.335a.28.28 0 0 0 .277 0l2.34-1.335a.273.273 0 0 0 .138-.237v-.456l-2.473 1.412zm-.144-1.844l2.617-1.494v-.29a.273.273 0 0 0-.138-.236l-2.34-1.336a.28.28 0 0 0-.277 0l-2.34 1.336a.273.273 0 0 0-.139.237v.29l2.617 1.492z"/></g></g><g><path d="M6.026 22.39L.532 12.983a2.355 2.355 0 0 1 0-2.38l5.494-9.406A2.412 2.412 0 0 1 8.11.007H19.1c.86 0 1.654.453 2.084 1.19l5.495 9.407c.43.736.43 1.643 0 2.379l-5.495 9.407a2.412 2.412 0 0 1-2.084 1.19H8.11c-.86 0-1.654-.454-2.084-1.19z" fill="url(#n)" transform="translate(20 241)"/><path d="M45.36 256.534l-7.578-7.49-4.038-1.372-4.282 3.199 2.678 2.646-2.687.259 2.508 2.478-2.538.315 8.481 8.384 2.725-.309z" fill="#000" opacity=".07"/><g fill="#FFF"><path d="M33.605 246.634l-4.186 2.389v1.847l4.186 2.39 4.186-2.39v-1.847l-4.186-2.39zm2.5 3.285h-.002l-2.498 1.425-2.499-1.426-.002.001v-.002l.002.001 2.499-1.426 2.498 1.426h.002v.001z"/><path d="M29.419 251.914v1.848l4.186 2.389 4.186-2.39v-1.847l-4.186 2.39z"/><path d="M29.419 254.716v1.847l4.186 2.39 4.186-2.39v-1.847l-4.186 2.389z"/></g></g><g><path d="M5.67 21.643L.5 12.55a2.33 2.33 0 0 1 0-2.3l5.17-9.093A2.259 2.259 0 0 1 7.633.007h10.342c.809 0 1.556.438 1.961 1.15l5.17 9.093a2.33 2.33 0 0 1 0 2.3l-5.17 9.093a2.259 2.259 0 0 1-1.961 1.15H7.632a2.257 2.257 0 0 1-1.961-1.15z" transform="translate(269 241.6)" fill="url(#n)"/><path d="M292.681 257.496l-7.603-7.721-3.275-.89-2.941 1.11-1.136 3.005.913 3.346 8.064 8.187 1.71-.077z" fill="#000" opacity=".07"/><g fill="#FFF"><path d="M281.803 248.36c-2.523 0-4.569 2.078-4.569 4.64s2.046 4.639 4.569 4.639 4.569-2.077 4.569-4.639c0-2.562-2.046-4.64-4.569-4.64m0 8.16c-1.915 0-3.466-1.576-3.466-3.52s1.551-3.52 3.466-3.52c1.915 0 3.467 1.576 3.467 3.52s-1.552 3.52-3.467 3.52"/><path d="M279.634 252.82v1.443c.21.366.508.674.863.895v-2.337h-.863zm1.711-1.215v3.882c.147.028.297.044.451.044.14 0 .278-.015.412-.037v-3.889h-.863zm1.791 1.815v1.712c.36-.233.66-.556.863-.94v-.772h-.863zm1.954 2.437l-.473.481a.22.22 0 0 0 0 .308l1.796 1.822a.21.21 0 0 0 .302 0l.474-.48a.22.22 0 0 0 0-.307l-1.796-1.824a.212.212 0 0 0-.302 0"/></g></g><g><path d="M6.026 22.584L.532 13.096a2.394 2.394 0 0 1 0-2.4l5.494-9.49A2.408 2.408 0 0 1 8.11.008H19.1c.86 0 1.654.457 2.084 1.2l5.495 9.489c.43.742.43 1.657 0 2.4l-5.495 9.488a2.408 2.408 0 0 1-2.084 1.2H8.11c-.86 0-1.654-.457-2.084-1.2z" fill="url(#n)" transform="translate(389 241)"/><path d="M414.358 257.35l-7.25-7.23-1.992.158.009 1.287-1.462-1.457-1.93.218-.005 1.274-1.487-1.483-2.14 2.14 1.33 1.326-1.292.047-.03 2.057 9.255 9.228 2.265-.065z" fill="#000" opacity=".07"/><path d="M400.06 250.04h-1.781a.254.254 0 0 0-.253.253v1.783c0 .138.114.252.253.252h1.781c.14 0 .253-.114.253-.252v-1.783a.254.254 0 0 0-.253-.253m3.435 3.423h-1.781a.254.254 0 0 0-.254.252v1.784c0 .139.115.252.254.252h1.78c.14 0 .254-.113.254-.252v-1.784a.254.254 0 0 0-.253-.252m3.435 0h-1.781a.253.253 0 0 0-.253.252v1.784c0 .139.114.252.253.252h1.781c.14 0 .253-.113.253-.252v-1.784a.254.254 0 0 0-.253-.252m-6.87 0h-1.781a.254.254 0 0 0-.253.253v1.783c0 .139.114.252.253.252h1.781a.254.254 0 0 0 .253-.252v-1.783a.254.254 0 0 0-.253-.253zm-.254 1.779h-1.273v-1.27h1.273v1.27zm3.689-5.202h-1.781a.254.254 0 0 0-.253.253v1.783c0 .138.114.252.253.252h1.781a.254.254 0 0 0 .253-.252v-1.783a.254.254 0 0 0-.253-.253zm-.254 1.778h-1.273v-1.268h1.273v1.268zm3.689-1.778h-1.78a.254.254 0 0 0-.254.253v1.783c0 .138.114.252.253.252h1.781c.14 0 .253-.114.253-.252v-1.783a.254.254 0 0 0-.253-.253zm-.254 1.778h-1.273v-1.268h1.273v1.268z" fill="#FFF"/></g><g><path d="M6.026 22.65L.532 13.134a2.407 2.407 0 0 1 0-2.407L6.026 1.21A2.407 2.407 0 0 1 8.11.007H19.1c.86 0 1.654.459 2.084 1.203l5.495 9.517c.43.744.43 1.662 0 2.407l-5.495 9.516a2.407 2.407 0 0 1-2.084 1.203H8.11c-.86 0-1.654-.458-2.084-1.203z" fill="url(#o)" transform="translate(148 241)"/><path d="M163.698 247.667l-.794 1.22-1.927-1.927-.461 1.866-1.004.962 2.052 2.052.028 1.912-1.793.486-1.962-.36-1.865 1.725 1.015 1.015-.387.072 8.163 8.163h2.336c.86 0 1.654-.458 2.084-1.203l3.842-6.655-9.327-9.328z" fill="#000" opacity=".07"/><path fill="#FFF" d="M165.684 254.732l1.53.884.12-1.622-1.836-1.06-1.194.774-1.889-1.091v-2.174l1.283-.655v-2.12l-1.465-.708v1.768l-.628.353-.628-.353v-1.768l-1.465.707v2.121l1.267.647v2.182l-1.883 1.087-1.208-.784-1.836 1.06.12 1.623 1.53-.884.62.367.008.72-1.53.884 1.345.916 1.836-1.06-.073-1.422 1.89-1.09 1.882 1.086-.075 1.438 1.837 1.06 1.345-.914-1.531-.884.008-.72z"/></g></g></svg>